<svg width="120" height="120" viewBox="0 0 120 120" fill="none" xmlns="http://www.w3.org/2000/svg" aria-label="Landbank" class="h-10 w-10"><rect width="120" height="120" fill="white"></rect><g clip-path="url(#_r_1h_)"><path d="M58.8984 37.15C58.8984 37.15 58.5223 39.0681 58.486 39.0722H58.6144C58.2292 39.1122 57.846 39.1699 57.4661 39.2451L57.5704 39.2124C57.5345 39.2193 56.6022 37.5015 56.6022 37.5015L54.624 38.1216C54.624 38.1216 54.8385 40.0645 54.8051 40.0794L54.9322 40.0396C54.5714 40.1952 54.2181 40.3677 53.8735 40.5563L53.9732 40.4869C53.9411 40.5042 52.538 39.144 52.538 39.144L50.8356 40.3275C50.8356 40.3275 51.6211 42.1173 51.5936 42.1414L51.7072 42.0625C51.4059 42.322 51.1171 42.5956 50.8417 42.8824L50.9218 42.7792C50.8963 42.8053 49.1507 41.9271 49.1507 41.9271L47.88 43.5658C47.88 43.5658 49.1646 45.0386 49.1456 45.0698L49.2321 44.9583C49.0207 45.2986 48.8256 45.6488 48.6475 46.0076L48.6951 45.8795C48.6786 45.9121 46.7503 45.5962 46.7503 45.5962L46.0277 47.54C46.0277 47.54 47.6938 48.5611 47.685 48.5966L47.7348 48.4626C47.6344 48.8524 47.5527 49.2467 47.4898 49.6442L47.4972 49.504C47.4912 49.5401 45.5566 49.8154 45.5566 49.8154L45.4482 51.8864C45.4482 51.8864 47.3432 52.3625 47.3454 52.399L47.3473 52.3643C47.3733 52.7913 47.4211 53.2168 47.4903 53.639L45.8669 54.3659L46.3073 56.201C48.0665 61.948 53.6185 65.9055 59.9349 65.9147C66.2515 65.9055 71.8036 61.948 73.5625 56.201L74.003 54.3659L72.3703 53.6349C72.4444 53.1784 72.4933 52.7183 72.517 52.2565L72.5243 52.399C72.5264 52.3625 74.422 51.8864 74.422 51.8864L74.3132 49.8154C74.3132 49.8154 72.3787 49.5401 72.3729 49.504L72.3745 49.5324C72.3141 49.1871 72.2394 48.8443 72.1511 48.5052L72.1847 48.5966C72.1763 48.5611 73.8422 47.54 73.8422 47.54L73.1194 45.5962C73.1194 45.5962 71.1912 45.9121 71.1749 45.8795C71.0188 45.58 70.8506 45.2868 70.6708 45.0008L70.7244 45.0698C70.7055 45.0386 71.9897 43.5658 71.9897 43.5658L70.7192 41.9271C70.7192 41.9271 68.9739 42.8053 68.9482 42.7792L68.9576 42.7913C68.719 42.5502 68.4709 42.3188 68.2133 42.0977L68.2764 42.1414C68.249 42.1173 69.0344 40.3275 69.0344 40.3275L67.3317 39.144C67.3317 39.144 65.9287 40.5042 65.8966 40.4869L65.9192 40.5028C65.6201 40.3429 65.3142 40.1952 65.003 40.0599L65.065 40.0794C65.0314 40.0645 65.2459 38.1216 65.2459 38.1216L63.2677 37.5015C63.2677 37.5015 62.3354 39.2193 62.2995 39.2124L62.3381 39.2246C62.0044 39.1602 61.6682 39.1094 61.3304 39.0722H61.3839C61.3476 39.0681 60.9716 37.15 60.9716 37.15H58.8984Z" fill="#1CB14D"></path><path fill-rule="evenodd" clip-rule="evenodd" d="M56.8904 46.2976C56.8694 49.4562 58.9951 51.3976 59.8988 51.9195C60.8024 51.3976 62.9281 49.4562 62.9072 46.2976C62.8863 43.1389 60.8024 41.1976 59.8988 40.6757C58.9951 41.1976 56.9112 43.1389 56.8904 46.2976Z" fill="#FDC14F"></path><path fill-rule="evenodd" clip-rule="evenodd" d="M47.2507 56.5514C47.6261 57.5184 48.1085 58.4317 48.6838 59.2767C53.956 56.0755 61.5895 61.301 70.7087 59.9344C71.36 59.0903 71.9151 58.1678 72.3556 57.1828C59.2732 61.6978 52.5982 54.4661 47.2507 56.5514Z" fill="#FDC14F"></path><path fill-rule="evenodd" clip-rule="evenodd" d="M49.7166 60.6084C50.2955 61.2669 50.9371 61.8687 51.6321 62.4049C59.7077 58.0754 63.0369 61.7353 67.3785 63.0162C68.1933 62.4828 68.9471 61.8643 69.6273 61.1733C62.7141 62.1739 57.5036 57.02 49.7166 60.6084Z" fill="#FDC14F"></path><path d="M58.9214 61.4114C56.884 61.4114 54.8469 62.0864 53.173 63.4355C55.1645 64.5781 57.4729 65.2314 59.9349 65.2314C61.879 65.2314 63.7266 64.8233 65.3988 64.0894C63.6086 62.3041 61.265 61.4114 58.9214 61.4114Z" fill="#FDC14F"></path><path d="M60.9221 57.0502H58.9478V65.4726H60.9221V57.0502Z" fill="#1CB14D"></path><path fill-rule="evenodd" clip-rule="evenodd" d="M52.0494 48.0655C51.978 48.0666 51.9125 48.0699 51.8536 48.0751C51.5615 48.9743 51.3471 51.6255 53.2984 54.1089C53.4792 54.3389 53.6662 54.5507 53.8572 54.7458C55.1291 56.1563 57.0881 57.1094 59.3186 57.259V65.2168C59.523 65.226 59.7283 65.2314 59.9349 65.2314C60.1415 65.2314 60.3468 65.226 60.5512 65.2168V57.2588C62.7779 57.1096 64.7338 56.1594 66.006 54.7529C66.007 54.7518 66.0081 54.7507 66.0091 54.7496C66.2015 54.5536 66.3892 54.3404 66.5716 54.1089C68.5229 51.6255 68.3084 48.9743 68.0161 48.0751C67.9573 48.0699 67.8921 48.0666 67.8206 48.0655C66.7482 48.0492 64.3201 48.5339 62.4641 50.8407C60.8844 52.804 60.7202 54.902 60.8665 56.1271C60.6324 56.3738 60.3017 56.5277 59.9349 56.5277C59.5681 56.5277 59.2374 56.3738 59.0033 56.1271C59.1496 54.902 58.9854 52.804 57.4057 50.8407C55.5496 48.5339 53.1216 48.0492 52.0494 48.0655Z" fill="#FDC14F"></path><path d="M11.1 72.2111H14.5915V80.7309H20.0407V83.5143H11.1V72.2111Z" fill="#1CB14D"></path><path d="M28.5961 81.6484H24.619L24.0718 83.5143H20.5032L24.75 72.2111H28.5576L32.8044 83.5143H29.1511L28.5961 81.6484ZM27.8639 79.2043L26.6153 75.141L25.3744 79.2043H27.8639Z" fill="#1CB14D"></path><path d="M33.9374 72.2111H37.1977L41.4522 78.4641V72.2111H44.7434V83.5143H41.4522L37.2208 77.3076V83.5143H33.9374V72.2111Z" fill="#1CB14D"></path><path d="M47.1251 72.2111H52.3122C53.3347 72.2111 54.1595 72.3498 54.7863 72.6274C55.4183 72.905 55.9399 73.3033 56.351 73.8225C56.7621 74.3417 57.0601 74.9456 57.245 75.6344C57.43 76.3232 57.5225 77.0531 57.5225 77.8241C57.5225 79.0321 57.3838 79.9701 57.1063 80.6384C56.834 81.3015 56.4538 81.8592 55.9656 82.3115C55.4774 82.7587 54.9533 83.0568 54.3933 83.2059C53.6276 83.4115 52.934 83.5143 52.3122 83.5143H47.1251V72.2111ZM50.6166 74.7709V80.9468H51.4721C52.2017 80.9468 52.7207 80.8671 53.029 80.7078C53.3373 80.5433 53.5788 80.2606 53.7535 79.8597C53.9282 79.4536 54.0156 78.7982 54.0156 77.8935C54.0156 76.6958 53.8203 75.876 53.4298 75.434C53.0393 74.9919 52.3919 74.7709 51.4875 74.7709H50.6166Z" fill="#1CB14D"></path><path d="M59.3569 72.2111H65.8929C66.9821 72.2111 67.8174 72.4809 68.3978 73.0206C68.9834 73.5604 69.2767 74.2285 69.2767 75.0253C69.2767 75.6935 69.0685 76.2667 68.6522 76.7447C68.3746 77.0634 67.9688 77.3152 67.4342 77.5003C68.2464 77.6956 68.8425 78.0323 69.2225 78.5104C69.6079 78.9833 69.8008 79.5795 69.8008 80.2991C69.8008 80.8851 69.6646 81.412 69.3923 81.8798C69.12 82.3475 68.7473 82.7176 68.2748 82.99C67.9814 83.1597 67.5399 83.283 66.949 83.3601C66.1626 83.4629 65.6411 83.5143 65.3841 83.5143H59.3569V72.2111ZM62.8792 76.6445H64.3974C64.9425 76.6445 65.3199 76.5519 65.5307 76.3669C65.7463 76.1767 65.8546 75.9043 65.8546 75.5496C65.8546 75.2206 65.7463 74.9636 65.5307 74.7786C65.3199 74.5935 64.9499 74.501 64.4205 74.501H62.8792V76.6445ZM62.8792 81.0856H64.6597C65.2611 81.0856 65.6848 80.9802 65.9313 80.7695C66.1778 80.5536 66.3014 80.2657 66.3014 79.9059C66.3014 79.5718 66.1778 79.3045 65.9313 79.1041C65.69 78.8985 65.2637 78.7956 64.6518 78.7956H62.8792V81.0856Z" fill="#1CB14D"></path><path d="M78.2941 81.6484H74.3174L73.7701 83.5143H70.2014L74.4483 72.2111H78.2557L82.5026 83.5143H78.8492L78.2941 81.6484ZM77.5623 79.2043L76.3133 75.141L75.0728 79.2043H77.5623Z" fill="#1CB14D"></path><path d="M83.6354 72.2111H86.8962L91.1505 78.4641V72.2111H94.4417V83.5143H91.1505L86.9193 77.3076V83.5143H83.6354V72.2111Z" fill="#1CB14D"></path><path d="M96.7925 72.2111H100.284V76.4825L103.945 72.2111H108.585L104.469 76.4748L108.77 83.5143H104.469L102.088 78.865L100.284 80.754V83.5143H96.7925V72.2111Z" fill="#1CB14D"></path></g><defs><clipPath id="_r_1h_"><rect width="97.67" height="46.3643" fill="white" transform="translate(11.1 37.15)"></rect></clipPath></defs></svg>
